<?xml version="1.0" encoding="UTF-8" standalone="no" ?>
<!DOCTYPE svg PUBLIC "-//W3C//DTD SVG 1.1//EN" "http://www.w3.org/Graphics/SVG/1.1/DTD/svg11.dtd">
<svg xmlns="http://www.w3.org/2000/svg" xmlns:xlink="http://www.w3.org/1999/xlink" version="1.1" width="1280" height="1024" viewBox="0 0 1280 1024" xml:space="preserve">
<desc>Created with Fabric.js 5.3.0</desc>
<defs>
</defs>
<g transform="matrix(1 0 0 1 640 512)" id="background-logo"  >
<rect style="stroke: none; stroke-width: 0; stroke-dasharray: none; stroke-linecap: butt; stroke-dashoffset: 0; stroke-linejoin: miter; stroke-miterlimit: 4; fill: rgb(255,255,255); fill-rule: nonzero; opacity: 1;"  paint-order="stroke"  x="-640" y="-512" rx="0" ry="0" width="1280" height="1024" />
</g>
<g transform="matrix(1.9211538461538462 0 0 1.9211538461538462 640 407.12530186581154)" id="logo-logo"  >
<g style=""  paint-order="stroke"   >
		<g transform="matrix(1.2266923493329842 0 0 -1.2266923493329842 17.689670228890407 -3.0353029504619258)"  >
<linearGradient id="SVGID_2_59725" gradientUnits="userSpaceOnUse" gradientTransform="matrix(1 0 0 1 95.84800000000003 64.787)"  x1="0" y1="0" x2="0" y2="132">
<stop offset="0%" style="stop-color:rgb(23,234,217);stop-opacity: 1"/>
<stop offset="100%" style="stop-color:rgb(96,120,234);stop-opacity: 1"/>
</linearGradient>
<path style="stroke: none; stroke-width: 1; stroke-dasharray: none; stroke-linecap: butt; stroke-dashoffset: 0; stroke-linejoin: miter; stroke-miterlimit: 4; fill: url(#SVGID_2_59725); fill-rule: nonzero; opacity: 1;"  paint-order="stroke"  transform=" translate(-178.7065, -130.93)" d="M 197.437 185.416 C 208.26100000000002 189.617 230.173 193.852 235.872 180.936 L 235.872 180.936 C 240.31900000000002 170.864 233.69500000000002 155.58100000000002 227.05900000000003 148.166 L 227.05900000000003 148.166 L 227.05900000000003 176.945 L 188.24400000000003 176.945 L 182.72200000000004 193.667 L 144.84200000000004 193.667 L 139.32600000000005 176.945 L 108.97100000000005 176.945 C 101.75700000000005 176.945 95.84800000000004 171.043 95.84800000000004 163.82299999999998 L 95.84800000000004 163.82299999999998 L 95.84800000000004 103.73499999999999 C 95.84800000000004 91.08399999999999 105.65300000000005 83.28299999999999 118.48900000000003 82.16999999999999 L 118.48900000000003 82.16999999999999 C 147.98400000000004 79.60899999999998 193.02200000000005 92.00699999999999 215.21000000000004 111.76999999999998 L 215.21000000000004 111.76999999999998 C 209.71 98.648 195.954 81.081 171.193 64.787 L 171.193 64.787 C 202.936 70.50200000000001 251.827 98.858 261.565 137.166 L 261.565 137.166 C 255.425 128.488 247.489 121.08099999999999 233.414 113.46199999999999 L 233.414 113.46199999999999 C 246.36499999999998 129.706 256.12 156.618 251.149 176.773 L 251.149 176.773 C 248.101 189.127 238.815 197.072 226.216 197.073 L 226.216 197.073 C 217.809 197.073 207.929 193.538 197.437 185.416 M 128.17700000000002 136.896 C 128.17700000000002 155.27599999999998 143.079 170.172 161.454 170.172 L 161.454 170.172 C 179.834 170.172 194.73700000000002 155.276 194.73700000000002 136.896 L 194.73700000000002 136.896 C 194.73700000000002 118.51799999999999 179.83400000000003 103.61899999999999 161.454 103.61899999999999 L 161.454 103.61899999999999 C 143.079 103.61899999999999 128.17700000000002 118.51799999999999 128.17700000000002 136.896 M 107.70300000000002 166.047 L 122.51700000000002 166.047 L 122.51700000000002 156.523 L 107.70300000000003 156.523 z" stroke-linecap="round" />
</g>
		<g transform="matrix(1.2266923493329842 0 0 -1.2266923493329842 -3.470159450928918 -10.354362852757163)"  >
<path style="stroke: none; stroke-width: 1; stroke-dasharray: none; stroke-linecap: butt; stroke-dashoffset: 0; stroke-linejoin: miter; stroke-miterlimit: 4; fill: rgb(56,181,224); fill-rule: nonzero; opacity: 1;"  paint-order="stroke"  transform=" translate(-161.457, -136.8965)" d="M 140.175 136.896 C 140.175 125.14299999999999 149.704 115.618 161.454 115.618 L 161.454 115.618 C 173.209 115.618 182.739 125.143 182.739 136.896 L 182.739 136.896 C 182.739 148.648 173.209 158.17499999999998 161.454 158.17499999999998 L 161.454 158.17499999999998 C 149.704 158.17499999999998 140.175 148.648 140.175 136.896" stroke-linecap="round" />
</g>
		<g transform="matrix(1.2266923493329842 0 0 -1.2266923493329842 -58.4114095981887 38.29672180000114)"  >
<path style="stroke: none; stroke-width: 1; stroke-dasharray: none; stroke-linecap: butt; stroke-dashoffset: 0; stroke-linejoin: miter; stroke-miterlimit: 4; fill: rgb(56,181,224); fill-rule: nonzero; opacity: 1;"  paint-order="stroke"  transform=" translate(-116.66887510696206, -97.23612005289075)" d="M 80.62 67.843 C 98.147 55.65 138.853 56.068 166.331 78.339 L 166.331 78.339 C 143.846 69.401 99.993 63.726 83.051 88.107 L 83.051 88.107 C 75.297 99.276 75.369 115.276 91.626 134.63400000000001 L 91.626 134.63400000000001 C 66.711 118.652 56.752 84.441 80.62 67.843" stroke-linecap="round" />
</g>
</g>
</g>
<g transform="matrix(1.9211538461538462 0 0 1.9211538461538462 640.1104663461539 656.3471115685596)" id="text-logo"  >
<g style=""  paint-order="stroke"   >
		<g transform="matrix(1 0 0 1 0 0)" id="text-logo-path-0"  >
<path style="stroke: none; stroke-width: 0; stroke-dasharray: none; stroke-linecap: butt; stroke-dashoffset: 0; stroke-linejoin: miter; stroke-miterlimit: 4; fill: rgb(91,126,233); fill-rule: nonzero; opacity: 1;"  paint-order="stroke"  transform=" translate(-149.27, 15.409999999999998)" d="M 9.66 0 L 9.66 -14.63 L 15.69 0 L 23.74 0 L 29.81 -14.72 L 29.81 0 L 37.17 0 L 37.17 -30.82 L 28.43 -30.82 L 19.73 -9.66 L 10.99 -30.82 L 2.3 -30.82 L 2.3 0 Z M 66.98 0.51 C 72.86 0.51 78.06 -2.62 80.87 -7.5 C 82.29 -9.94 82.98 -12.56 82.98 -15.41 C 82.98 -21.11 79.95 -26.27 75.03 -29.16 C 72.59 -30.59 69.87 -31.33 66.98 -31.33 C 61.09 -31.33 55.89 -28.24 53.08 -23.37 C 51.66 -20.93 50.97 -18.26 50.97 -15.41 C 50.97 -9.71 54 -4.55 58.93 -1.66 C 61.36 -0.23 64.08 0.51 66.98 0.51 Z M 58.56 -15.41 C 58.56 -20.15 62.33 -23.92 66.98 -23.92 C 71.67 -23.92 75.39 -20.15 75.39 -15.41 C 75.39 -10.67 71.62 -6.9 66.98 -6.9 C 62.28 -6.9 58.56 -10.67 58.56 -15.41 Z M 113.16 0 L 125.12 -30.82 L 117.02 -30.82 L 109.11 -10.44 L 101.2 -30.82 L 93.1 -30.82 L 105.06 0 Z M 146.28 0 L 146.28 -30.82 L 138.92 -30.82 L 138.92 0 Z M 160.08 0 L 182.16 0 L 182.16 -6.44 L 167.44 -6.44 L 167.44 -12.19 L 179.4 -12.19 L 179.4 -18.63 L 167.44 -18.63 L 167.44 -24.38 L 182.16 -24.38 L 182.16 -30.82 L 160.08 -30.82 Z M 203.32 0 L 203.32 -10.35 L 211.14 -10.35 C 216.66 -10.58 220.98 -15 220.98 -20.61 C 220.98 -26.17 216.66 -30.59 211.14 -30.82 L 195.96 -30.82 L 195.96 0 Z M 203.32 -16.79 L 203.32 -24.38 L 209.85 -24.38 C 212.11 -24.38 213.62 -22.82 213.62 -20.56 C 213.62 -18.31 212.11 -16.79 209.85 -16.79 Z M 237.36 0 L 239.66 -5.98 L 250.88 -5.98 L 253.18 0 L 261.28 0 L 249.32 -30.82 L 241.22 -30.82 L 229.26 0 Z M 242.19 -12.42 L 245.27 -20.38 L 248.35 -12.42 Z M 275.08 0 L 296.24 0 L 296.24 -6.44 L 282.44 -6.44 L 282.44 -30.82 L 275.08 -30.82 Z" stroke-linecap="round" />
</g>
</g>
</g>
<g transform="matrix(1.9211538461538462 0 0 1.9211538461538462 640.0879117128435 743.2077405442859)" id="tagline-40d923de-78c4-462b-8b96-fcf4a95ad295-logo"  >
<g style=""  paint-order="stroke"   >
		<g transform="matrix(1 0 0 1 0 0)" id="tagline-40d923de-78c4-462b-8b96-fcf4a95ad295-logo-path-0"  >
<path style="stroke: none; stroke-width: 0; stroke-dasharray: none; stroke-linecap: butt; stroke-dashoffset: 0; stroke-linejoin: miter; stroke-miterlimit: 4; fill: rgb(46,199,222); fill-rule: nonzero; opacity: 1;"  paint-order="stroke"  transform=" translate(-151.55999999999997, 6.130000000000001)" d="M 13.65 -6.5 L 7.61 -6.5 L 7.61 -5.22 L 12.03 -5.22 C 11.7 -3.9 10.87 -2.71 9.74 -1.94 C 8.99 -1.45 8.16 -1.19 7.28 -1.19 C 5.51 -1.19 3.92 -2.12 3.04 -3.64 C 2.6 -4.39 2.38 -5.23 2.38 -6.13 C 2.38 -7.94 3.31 -9.54 4.83 -10.43 C 5.58 -10.87 6.41 -11.09 7.28 -11.09 C 9.04 -11.09 10.6 -10.18 11.48 -8.71 L 12.72 -9.43 C 11.57 -11.28 9.55 -12.46 7.28 -12.46 C 4.94 -12.46 2.87 -11.24 1.76 -9.3 C 1.19 -8.33 0.92 -7.27 0.92 -6.13 C 0.92 -3.86 2.12 -1.81 4.08 -0.66 C 5.05 -0.09 6.13 0.2 7.28 0.2 C 9.3 0.2 11.06 -0.82 12.19 -2.45 L 12.19 0 L 13.65 0 Z M 23.36 0 L 23.36 -5.11 L 26.89 -5.11 L 30.09 0 L 31.81 0 L 28.59 -5.16 C 30.37 -5.45 31.68 -6.9 31.68 -8.71 C 31.68 -10.71 30.02 -12.26 27.93 -12.26 L 21.89 -12.26 L 21.89 0 Z M 23.36 -6.39 L 23.36 -10.98 L 27.84 -10.98 C 29.32 -10.98 30.31 -10.09 30.31 -8.71 C 30.31 -7.32 29.38 -6.41 27.93 -6.37 Z M 41.62 0 L 42.89 -3.02 L 49.04 -3.02 L 50.3 0 L 51.87 0 L 46.75 -12.26 L 45.17 -12.26 L 40.05 0 Z M 43.42 -4.3 L 45.96 -10.38 L 48.51 -4.3 Z M 66.33 0 C 68.58 0 70.27 -1.52 70.27 -3.51 C 70.27 -5.05 69.3 -5.99 67.76 -6.3 C 68.97 -6.74 69.72 -7.65 69.72 -8.99 C 69.72 -10.82 68.29 -12.19 66.15 -12.26 L 60.11 -12.26 L 60.11 0 Z M 61.57 -1.28 L 61.57 -5.84 L 66.42 -5.84 C 67.91 -5.84 68.9 -4.92 68.9 -3.51 C 68.9 -2.14 67.91 -1.28 66.24 -1.28 Z M 61.57 -6.94 L 61.57 -10.98 L 65.88 -10.98 C 67.41 -10.98 68.35 -10.31 68.35 -8.99 C 68.35 -7.74 67.58 -7.05 66.3 -6.94 Z M 94.91 -4.72 L 95.05 -4.94 L 99.79 -12.26 L 98.04 -12.26 L 94.17 -6.3 L 90.33 -12.26 L 88.57 -12.26 L 93.3 -4.94 L 93.44 -4.72 L 93.44 0 L 94.91 0 Z M 114.4 0.2 C 116.74 0.2 118.81 -1.04 119.93 -2.98 C 120.49 -3.95 120.77 -5 120.77 -6.13 C 120.77 -8.4 119.56 -10.45 117.6 -11.6 C 116.63 -12.17 115.55 -12.46 114.4 -12.46 C 112.06 -12.46 109.99 -11.24 108.87 -9.3 C 108.3 -8.33 108.03 -7.27 108.03 -6.13 C 108.03 -3.86 109.24 -1.81 111.2 -0.66 C 112.17 -0.09 113.25 0.2 114.4 0.2 Z M 114.4 -1.19 C 112.62 -1.19 111.03 -2.12 110.15 -3.64 C 109.71 -4.39 109.49 -5.23 109.49 -6.13 C 109.49 -7.94 110.43 -9.54 111.95 -10.43 C 112.7 -10.87 113.52 -11.09 114.4 -11.09 C 116.18 -11.09 117.77 -10.14 118.65 -8.62 C 119.09 -7.87 119.31 -7.03 119.31 -6.13 C 119.31 -4.32 118.37 -2.73 116.85 -1.85 C 116.1 -1.41 115.28 -1.19 114.4 -1.19 Z M 137.79 -12.26 L 137.79 -4.98 C 137.79 -2.73 136.14 -1.19 134.15 -1.19 C 132.01 -1.19 130.47 -2.8 130.47 -4.98 L 130.47 -12.26 L 129.01 -12.26 L 129.01 -4.98 C 129.01 -3.09 130.01 -1.45 131.59 -0.51 C 132.37 -0.05 133.22 0.18 134.15 0.18 C 135.98 0.18 137.66 -0.82 138.58 -2.4 C 139.04 -3.18 139.26 -4.05 139.26 -4.98 L 139.26 -12.26 Z M 148.96 0 L 148.96 -5.11 L 152.49 -5.11 L 155.69 0 L 157.41 0 L 154.19 -5.16 C 155.97 -5.45 157.29 -6.9 157.29 -8.71 C 157.29 -10.71 155.62 -12.26 153.53 -12.26 L 147.49 -12.26 L 147.49 0 Z M 148.96 -6.39 L 148.96 -10.98 L 153.44 -10.98 C 154.92 -10.98 155.91 -10.09 155.91 -8.71 C 155.91 -7.32 154.98 -6.41 153.53 -6.37 Z M 177.18 0 L 177.18 -4.76 L 181.76 -4.76 C 183.86 -4.76 185.51 -6.41 185.51 -8.51 C 185.51 -10.62 183.86 -12.26 181.76 -12.26 L 175.72 -12.26 L 175.72 0 Z M 177.18 -6.04 L 177.18 -10.98 L 181.67 -10.98 C 183.15 -10.98 184.14 -9.99 184.14 -8.51 C 184.14 -7.03 183.15 -6.04 181.67 -6.04 Z M 200.12 0.2 C 202.46 0.2 204.53 -1.04 205.64 -2.98 C 206.21 -3.95 206.49 -5 206.49 -6.13 C 206.49 -8.4 205.28 -10.45 203.32 -11.6 C 202.35 -12.17 201.27 -12.46 200.12 -12.46 C 197.77 -12.46 195.71 -11.24 194.59 -9.3 C 194.02 -8.33 193.75 -7.27 193.75 -6.13 C 193.75 -3.86 194.96 -1.81 196.91 -0.66 C 197.88 -0.09 198.96 0.2 200.12 0.2 Z M 200.12 -1.19 C 198.34 -1.19 196.75 -2.12 195.87 -3.64 C 195.43 -4.39 195.21 -5.23 195.21 -6.13 C 195.21 -7.94 196.15 -9.54 197.66 -10.43 C 198.41 -10.87 199.24 -11.09 200.12 -11.09 C 201.89 -11.09 203.48 -10.14 204.36 -8.62 C 204.8 -7.87 205.02 -7.03 205.02 -6.13 C 205.02 -4.32 204.09 -2.73 202.57 -1.85 C 201.82 -1.41 201 -1.19 200.12 -1.19 Z M 216.19 0 L 216.19 -4.76 L 220.76 -4.76 C 222.87 -4.76 224.52 -6.41 224.52 -8.51 C 224.52 -10.62 222.87 -12.26 220.76 -12.26 L 214.72 -12.26 L 214.72 0 Z M 216.19 -6.04 L 216.19 -10.98 L 220.67 -10.98 C 222.15 -10.98 223.14 -9.99 223.14 -8.51 C 223.14 -7.03 222.15 -6.04 220.67 -6.04 Z M 244.49 -2.69 C 243.31 -0.93 241.34 0.2 239.12 0.2 C 236.8 0.2 234.75 -1.04 233.61 -2.98 C 233.05 -3.95 232.75 -5 232.75 -6.13 C 232.75 -8.4 233.94 -10.45 235.9 -11.6 C 236.87 -12.17 237.95 -12.46 239.12 -12.46 C 241.39 -12.46 243.41 -11.28 244.56 -9.43 L 243.31 -8.71 C 242.45 -10.18 240.88 -11.09 239.12 -11.09 C 237.37 -11.09 235.75 -10.14 234.88 -8.62 C 234.44 -7.87 234.22 -7.03 234.22 -6.13 C 234.22 -4.32 235.17 -2.73 236.67 -1.85 C 237.42 -1.41 238.23 -1.19 239.12 -1.19 C 240.81 -1.19 242.33 -2.05 243.22 -3.42 Z M 259.17 0.2 C 261.51 0.2 263.58 -1.04 264.69 -2.98 C 265.26 -3.95 265.54 -5 265.54 -6.13 C 265.54 -8.4 264.33 -10.45 262.37 -11.6 C 261.4 -12.17 260.32 -12.46 259.17 -12.46 C 256.82 -12.46 254.75 -11.24 253.64 -9.3 C 253.07 -8.33 252.8 -7.27 252.8 -6.13 C 252.8 -3.86 254 -1.81 255.96 -0.66 C 256.93 -0.09 258.01 0.2 259.17 0.2 Z M 259.17 -1.19 C 257.39 -1.19 255.8 -2.12 254.92 -3.64 C 254.48 -4.39 254.26 -5.23 254.26 -6.13 C 254.26 -7.94 255.19 -9.54 256.71 -10.43 C 257.46 -10.87 258.29 -11.09 259.17 -11.09 C 260.94 -11.09 262.53 -10.14 263.41 -8.62 C 263.85 -7.87 264.07 -7.03 264.07 -6.13 C 264.07 -4.32 263.14 -2.73 261.62 -1.85 C 260.87 -1.41 260.04 -1.19 259.17 -1.19 Z M 275.24 0 L 275.24 -5.11 L 278.77 -5.11 L 281.97 0 L 283.69 0 L 280.47 -5.16 C 282.25 -5.45 283.56 -6.9 283.56 -8.71 C 283.56 -10.71 281.9 -12.26 279.81 -12.26 L 273.77 -12.26 L 273.77 0 Z M 275.24 -6.39 L 275.24 -10.98 L 279.72 -10.98 C 281.2 -10.98 282.19 -10.09 282.19 -8.71 C 282.19 -7.32 281.26 -6.41 279.81 -6.37 Z M 293.41 0 L 293.41 -10.18 L 300.62 0 L 302.2 0 L 302.2 -12.26 L 300.73 -12.26 L 300.73 -2.07 L 293.5 -12.26 L 291.93 -12.26 L 291.95 -12.25 L 291.95 0 Z" stroke-linecap="round" />
</g>
</g>
</g>
</svg>